ply
format ascii 1.0
element vertex          8
property float32 x
property float32 y
property float32 z
property uchar red
property uchar green
property uchar blue
element face          6
property list uint8 int32 vertex_indices
end_header
  -10000000.00000000   -10000000.00000000   -10000000.00000000  *** *** ***
   10000000.00000000   -10000000.00000000   -10000000.00000000  255 *** ***
   10000000.00000000    10000000.00000000   -10000000.00000000  255 255 ***
  -10000000.00000000    10000000.00000000   -10000000.00000000  *** 255 ***
  -10000000.00000000   -10000000.00000000    10000000.00000000  *** *** 255
   10000000.00000000   -10000000.00000000    10000000.00000000  255 *** 255
   10000000.00000000    10000000.00000000    10000000.00000000  255 255 255
  -10000000.00000000    10000000.00000000    10000000.00000000  *** 255 255
4          0          1          2          3 
4          4          5          6          7 
4          0          1          5          4 
4          2          3          7          6 
4          0          4          7          3 
4          1          2          6          5 
